  0
SECTION
  2
HEADER
  9
$ACADVER
  1
AC1014
  9
$HANDSEED
  5
FFFF
  9
$MEASUREMENT
 70
     1
  0
ENDSEC
  0
SECTION
  2
TABLES
  0
TABLE
  2
VPORT
  5
8
330
0
100
AcDbSymbolTable
 70
     4
  0
VPORT
  5
2E
330
8
100
AcDbSymbolTableRecord
100
AcDbViewportTableRecord
  2
*ACTIVE
 70
     0
 10
0.0
 20
0.0
 11
1.0
 21
1.0
 12
210.0
 22
148.5
 13
0.0
 23
0.0
 14
10.0
 24
10.0
 15
10.0
 25
10.0
 16
0.0
 26
0.0
 36
1.0
 17
0.0
 27
0.0
 37
0.0
 40
341.0
 41
1.24
 42
50.0
 43
0.0
 44
0.0
 50
0.0
 51
0.0
 71
     0
 72
   100
 73
     1
 74
     3
 75
     0
 76
     0
 77
     0
 78
     0
  0
ENDTAB
  0
TABLE
  2
LTYPE
  5
5
330
0
100
AcDbSymbolTable
 70
     1
  0
LTYPE
  5
14
330
5
100
AcDbSymbolTableRecord
100
AcDbLinetypeTableRecord
  2
BYBLOCK
 70
     0
  3

 72
    65
 73
     0
 40
0.0
  0
LTYPE
  5
15
330
5
100
AcDbSymbolTableRecord
100
AcDbLinetypeTableRecord
  2
BYLAYER
 70
     0
  3

 72
    65
 73
     0
 40
0.0
  0
LTYPE
  5
16
330
5
100
AcDbSymbolTableRecord
100
AcDbLinetypeTableRecord
  2
CONTINUOUS
 70
     0
  3
Solid line
 72
    65
 73
     0
 40
0.0
  0
ENDTAB
  0
TABLE
  2
LAYER
  5
2
100
AcDbSymbolTable
 70
2
  0
LAYER
  5
50
100
AcDbSymbolTableRecord
100
AcDbLayerTableRecord
  2
0
 70
0
  6
CONTINUOUS
  0
LAYER
  5
51
100
AcDbSymbolTableRecord
100
AcDbLayerTableRecord
  2
Layer_1
 70
0
  6
CONTINUOUS
  0
ENDTAB
  0
TABLE
  2
STYLE
  5
3
330
0
100
AcDbSymbolTable
 70
     1
  0
STYLE
  5
11
330
3
100
AcDbSymbolTableRecord
100
AcDbTextStyleTableRecord
  2
STANDARD
 70
     0
 40
0.0
 41
1.0
 50
0.0
 71
     0
 42
2.5
  3
txt
  4

  0
ENDTAB
  0
TABLE
  2
VIEW
  5
6
330
0
100
AcDbSymbolTable
 70
     0
  0
ENDTAB
  0
TABLE
  2
UCS
  5
7
330
0
100
AcDbSymbolTable
 70
     0
  0
ENDTAB
  0
TABLE
  2
APPID
  5
9
330
0
100
AcDbSymbolTable
 70
     2
  0
APPID
  5
12
330
9
100
AcDbSymbolTableRecord
100
AcDbRegAppTableRecord
  2
ACAD
 70
     0
  0
ENDTAB
  0
TABLE
  2
DIMSTYLE
  5
A
330
0
100
AcDbSymbolTable
 70
     1
  0
DIMSTYLE
105
27
330
A
100
AcDbSymbolTableRecord
100
AcDbDimStyleTableRecord
  2
ISO-25
 70
     0
  3

  4

  5

  6

  7

 40
1.0
 41
2.5
 42
0.625
 43
3.75
 44
1.25
 45
0.0
 46
0.0
 47
0.0
 48
0.0
140
2.5
141
2.5
142
0.0
143
0.03937007874016
144
1.0
145
0.0
146
1.0
147
0.625
 71
     0
 72
     0
 73
     0
 74
     0
 75
     0
 76
     0
 77
     1
 78
     8
170
     0
171
     3
172
     1
173
     0
174
     0
175
     0
176
     0
177
     0
178
     0
270
     2
271
     2
272
     2
273
     2
274
     3
340
11
275
     0
280
     0
281
     0
282
     0
283
     0
284
     8
285
     0
286
     0
287
     3
288
     0
  0
ENDTAB
  0
TABLE
  2
BLOCK_RECORD
  5
1
330
0
100
AcDbSymbolTable
 70
     1
  0
BLOCK_RECORD
  5
1F
330
1
100
AcDbSymbolTableRecord
100
AcDbBlockTableRecord
  2
*MODEL_SPACE
  0
BLOCK_RECORD
  5
1B
330
1
100
AcDbSymbolTableRecord
100
AcDbBlockTableRecord
  2
*PAPER_SPACE
  0
ENDTAB
  0
ENDSEC
  0
SECTION
  2
BLOCKS
  0
BLOCK
  5
20
330
1F
100
AcDbEntity
  8
0
100
AcDbBlockBegin
  2
*MODEL_SPACE
 70
     0
 10
0.0
 20
0.0
 30
0.0
  3
*MODEL_SPACE
  1

  0
ENDBLK
  5
21
330
1F
100
AcDbEntity
  8
0
100
AcDbBlockEnd
  0
BLOCK
  5
1C
330
1B
100
AcDbEntity
 67
     1
  8
0
100
AcDbBlockBegin
  2
*PAPER_SPACE
  1

  0
ENDBLK
  5
1D
330
1B
100
AcDbEntity
 67
     1
  8
0
100
AcDbBlockEnd
  0
ENDSEC
  0
SECTION
  2
ENTITIES
  0
LWPOLYLINE
  5
100
100
AcDbEntity
  8
Layer_1
 62
3
100
AcDbPolyline
 90
136
 70
1
 10
5.471362
 20
-4.121900
 30
0.0
 10
7.495937
 20
-6.146475
 30
0.0
 10
9.520512
 20
-8.171052
 30
0.0
 10
11.167624
 20
-8.171052
 30
0.0
 10
12.814739
 20
-8.171052
 30
0.0
 10
12.814739
 20
-6.135038
 30
0.0
 10
12.814739
 20
-4.099024
 30
0.0
 10
13.329460
 20
-4.099024
 30
0.0
 10
13.844184
 20
-4.099024
 30
0.0
 10
13.854400
 20
-4.603781
 30
0.0
 10
13.864616
 20
-5.108537
 30
0.0
 10
14.328987
 20
-5.116042
 30
0.0
 10
14.793357
 20
-5.123572
 30
0.0
 10
14.787619
 20
-9.198091
 30
0.0
 10
14.781882
 20
-13.272610
 30
0.0
 10
14.620576
 20
-13.740314
 30
0.0
 10
14.221409
 20
-14.421422
 30
0.0
 10
13.460395
 20
-14.762927
 30
0.0
 10
12.950702
 20
-14.878953
 30
0.0
 10
8.975369
 20
-14.878953
 30
0.0
 10
5.000039
 20
-14.878953
 30
0.0
 10
5.000039
 20
-14.393669
 30
0.0
 10
5.000039
 20
-13.908384
 30
0.0
 10
4.579456
 20
-13.908384
 30
0.0
 10
4.158876
 20
-13.908384
 30
0.0
 10
4.158876
 20
-13.390745
 30
0.0
 10
4.158876
 20
-12.873107
 30
0.0
 10
6.164720
 20
-12.873107
 30
0.0
 10
8.170567
 20
-12.873107
 30
0.0
 10
8.170567
 20
-11.255489
 30
0.0
 10
8.170567
 20
-9.637874
 30
0.0
 10
6.096091
 20
-7.574835
 30
0.0
 10
4.021616
 20
-5.511798
 30
0.0
 10
-0.050154
 20
-5.490130
 30
0.0
 10
-4.121924
 20
-5.468463
 30
0.0
 10
-6.146500
 20
-7.493038
 30
0.0
 10
-8.171076
 20
-9.517613
 30
0.0
 10
-8.171076
 20
-11.164725
 30
0.0
 10
-8.171076
 20
-12.811840
 30
0.0
 10
-6.135062
 20
-12.811840
 30
0.0
 10
-4.099048
 20
-12.811840
 30
0.0
 10
-4.099048
 20
-13.326561
 30
0.0
 10
-4.099048
 20
-13.841285
 30
0.0
 10
-4.603804
 20
-13.851501
 30
0.0
 10
-5.108561
 20
-13.861717
 30
0.0
 10
-5.116078
 20
-14.326088
 30
0.0
 10
-5.123595
 20
-14.790458
 30
0.0
 10
-9.198114
 20
-14.784720
 30
0.0
 10
-13.272634
 20
-14.778983
 30
0.0
 10
-13.740338
 20
-14.617677
 30
0.0
 10
-14.421446
 20
-14.218510
 30
0.0
 10
-14.762950
 20
-13.457496
 30
0.0
 10
-14.878977
 20
-12.947803
 30
0.0
 10
-14.878977
 20
-8.972470
 30
0.0
 10
-14.878977
 20
-4.997140
 30
0.0
 10
-14.393692
 20
-4.997140
 30
0.0
 10
-13.908407
 20
-4.997140
 30
0.0
 10
-13.908407
 20
-4.576557
 30
0.0
 10
-13.908407
 20
-4.155977
 30
0.0
 10
-13.390769
 20
-4.155977
 30
0.0
 10
-12.873130
 20
-4.155977
 30
0.0
 10
-12.873130
 20
-6.161821
 30
0.0
 10
-12.873130
 20
-8.167668
 30
0.0
 10
-11.255514
 20
-8.167668
 30
0.0
 10
-9.637897
 20
-8.167668
 30
0.0
 10
-7.574859
 20
-6.093192
 30
0.0
 10
-5.511822
 20
-4.018716
 30
0.0
 10
-5.511822
 20
-0.000000
 30
0.0
 10
-5.511822
 20
4.018724
 30
0.0
 10
-7.574859
 20
6.093200
 30
0.0
 10
-9.637897
 20
8.167675
 30
0.0
 10
-11.255514
 20
8.167675
 30
0.0
 10
-12.873130
 20
8.167675
 30
0.0
 10
-12.873130
 20
6.161830
 30
0.0
 10
-12.873130
 20
4.155985
 30
0.0
 10
-13.390769
 20
4.155985
 30
0.0
 10
-13.908407
 20
4.155985
 30
0.0
 10
-13.908407
 20
4.576566
 30
0.0
 10
-13.908407
 20
4.997147
 30
0.0
 10
-14.393692
 20
4.997147
 30
0.0
 10
-14.878977
 20
4.997147
 30
0.0
 10
-14.878977
 20
8.972479
 30
0.0
 10
-14.878977
 20
12.947810
 30
0.0
 10
-14.762950
 20
13.457504
 30
0.0
 10
-14.421446
 20
14.218518
 30
0.0
 10
-13.740339
 20
14.617684
 30
0.0
 10
-13.272634
 20
14.778990
 30
0.0
 10
-9.198114
 20
14.784715
 30
0.0
 10
-5.123595
 20
14.790441
 30
0.0
 10
-5.116078
 20
14.326071
 30
0.0
 10
-5.108561
 20
13.861701
 30
0.0
 10
-4.603804
 20
13.851484
 30
0.0
 10
-4.099048
 20
13.841268
 30
0.0
 10
-4.099048
 20
13.326545
 30
0.0
 10
-4.099048
 20
12.811823
 30
0.0
 10
-6.135062
 20
12.811823
 30
0.0
 10
-8.171076
 20
12.811823
 30
0.0
 10
-8.171076
 20
11.164710
 30
0.0
 10
-8.171076
 20
9.517596
 30
0.0
 10
-6.146500
 20
7.493021
 30
0.0
 10
-4.121924
 20
5.468446
 30
0.0
 10
-0.050154
 20
5.490121
 30
0.0
 10
4.021616
 20
5.511796
 30
0.0
 10
6.096091
 20
7.574834
 30
0.0
 10
8.170567
 20
9.637871
 30
0.0
 10
8.170567
 20
11.255488
 30
0.0
 10
8.170567
 20
12.873104
 30
0.0
 10
6.164720
 20
12.873104
 30
0.0
 10
4.158876
 20
12.873104
 30
0.0
 10
4.158876
 20
13.390743
 30
0.0
 10
4.158876
 20
13.908381
 30
0.0
 10
4.579456
 20
13.908381
 30
0.0
 10
5.000039
 20
13.908381
 30
0.0
 10
5.000039
 20
14.393666
 30
0.0
 10
5.000039
 20
14.878951
 30
0.0
 10
8.975369
 20
14.878951
 30
0.0
 10
12.950702
 20
14.878951
 30
0.0
 10
13.460395
 20
14.762924
 30
0.0
 10
14.221409
 20
14.421420
 30
0.0
 10
14.620576
 20
13.740313
 30
0.0
 10
14.781882
 20
13.272608
 30
0.0
 10
14.787619
 20
9.198088
 30
0.0
 10
14.793357
 20
5.123569
 30
0.0
 10
14.328987
 20
5.116052
 30
0.0
 10
13.864616
 20
5.108535
 30
0.0
 10
13.854400
 20
4.603779
 30
0.0
 10
13.844184
 20
4.099022
 30
0.0
 10
13.329460
 20
4.099022
 30
0.0
 10
12.814739
 20
4.099022
 30
0.0
 10
12.814739
 20
6.135036
 30
0.0
 10
12.814739
 20
8.171050
 30
0.0
 10
11.167624
 20
8.171050
 30
0.0
 10
9.520512
 20
8.171050
 30
0.0
 10
7.495937
 20
6.146474
 30
0.0
 10
5.471362
 20
4.121898
 30
0.0
 10
5.471362
 20
-0.000000
 30
0.0
  0
LWPOLYLINE
  5
101
100
AcDbEntity
  8
Layer_1
 62
3
100
AcDbPolyline
 90
16
 70
1
 10
3.251510
 20
-0.000000
 30
0.0
 10
2.992633
 20
-1.282260
 30
0.0
 10
2.286654
 20
-2.329368
 30
0.0
 10
1.239546
 20
-3.035347
 30
0.0
 10
-0.042714
 20
-3.294225
 30
0.0
 10
-1.324975
 20
-3.035347
 30
0.0
 10
-2.372083
 20
-2.329368
 30
0.0
 10
-3.078063
 20
-1.282260
 30
0.0
 10
-3.336939
 20
-0.000000
 30
0.0
 10
-3.078063
 20
1.282261
 30
0.0
 10
-2.372083
 20
2.329369
 30
0.0
 10
-1.324975
 20
3.035349
 30
0.0
 10
-0.042714
 20
3.294225
 30
0.0
 10
1.239546
 20
3.035349
 30
0.0
 10
2.286654
 20
2.329369
 30
0.0
 10
2.992633
 20
1.282261
 30
0.0
  0
LWPOLYLINE
  5
102
100
AcDbEntity
  8
Layer_1
 62
3
100
AcDbPolyline
 90
16
 70
1
 10
-12.416897
 20
13.355254
 30
0.0
 10
-11.560148
 20
13.355254
 30
0.0
 10
-10.703399
 20
13.355254
 30
0.0
 10
-9.974778
 20
13.054386
 30
0.0
 10
-9.673909
 20
12.325764
 30
0.0
 10
-9.673909
 20
11.485082
 30
0.0
 10
-9.673909
 20
10.644399
 30
0.0
 10
-9.974778
 20
9.915777
 30
0.0
 10
-10.703399
 20
9.614909
 30
0.0
 10
-11.560148
 20
9.614909
 30
0.0
 10
-12.416897
 20
9.614909
 30
0.0
 10
-13.145518
 20
9.915777
 30
0.0
 10
-13.446387
 20
10.644399
 30
0.0
 10
-13.446387
 20
11.485082
 30
0.0
 10
-13.446387
 20
12.325764
 30
0.0
 10
-13.145518
 20
13.054386
 30
0.0
  0
LWPOLYLINE
  5
103
100
AcDbEntity
  8
Layer_1
 62
3
100
AcDbPolyline
 90
16
 70
1
 10
10.617971
 20
13.355254
 30
0.0
 10
11.474720
 20
13.355254
 30
0.0
 10
12.331468
 20
13.355254
 30
0.0
 10
13.060091
 20
13.054386
 30
0.0
 10
13.360959
 20
12.325764
 30
0.0
 10
13.360959
 20
11.485082
 30
0.0
 10
13.360959
 20
10.644399
 30
0.0
 10
13.060091
 20
9.915777
 30
0.0
 10
12.331468
 20
9.614909
 30
0.0
 10
11.474720
 20
9.614909
 30
0.0
 10
10.617971
 20
9.614909
 30
0.0
 10
9.889349
 20
9.915777
 30
0.0
 10
9.588481
 20
10.644399
 30
0.0
 10
9.588481
 20
11.485082
 30
0.0
 10
9.588481
 20
12.325764
 30
0.0
 10
9.889349
 20
13.054386
 30
0.0
  0
LWPOLYLINE
  5
104
100
AcDbEntity
  8
Layer_1
 62
3
100
AcDbPolyline
 90
16
 70
1
 10
-12.416897
 20
-9.614911
 30
0.0
 10
-11.560148
 20
-9.614911
 30
0.0
 10
-10.703399
 20
-9.614911
 30
0.0
 10
-9.974778
 20
-9.915780
 30
0.0
 10
-9.673909
 20
-10.644402
 30
0.0
 10
-9.673909
 20
-11.485084
 30
0.0
 10
-9.673909
 20
-12.325766
 30
0.0
 10
-9.974778
 20
-13.054388
 30
0.0
 10
-10.703399
 20
-13.355256
 30
0.0
 10
-11.560148
 20
-13.355256
 30
0.0
 10
-12.416897
 20
-13.355256
 30
0.0
 10
-13.145518
 20
-13.054388
 30
0.0
 10
-13.446387
 20
-12.325766
 30
0.0
 10
-13.446387
 20
-11.485084
 30
0.0
 10
-13.446387
 20
-10.644402
 30
0.0
 10
-13.145518
 20
-9.915780
 30
0.0
  0
LWPOLYLINE
  5
105
100
AcDbEntity
  8
Layer_1
 62
3
100
AcDbPolyline
 90
16
 70
1
 10
10.617971
 20
-9.614911
 30
0.0
 10
11.474720
 20
-9.614911
 30
0.0
 10
12.331468
 20
-9.614911
 30
0.0
 10
13.060091
 20
-9.915780
 30
0.0
 10
13.360959
 20
-10.644402
 30
0.0
 10
13.360959
 20
-11.485084
 30
0.0
 10
13.360959
 20
-12.325766
 30
0.0
 10
13.060091
 20
-13.054388
 30
0.0
 10
12.331468
 20
-13.355256
 30
0.0
 10
11.474720
 20
-13.355256
 30
0.0
 10
10.617971
 20
-13.355256
 30
0.0
 10
9.889349
 20
-13.054388
 30
0.0
 10
9.588481
 20
-12.325766
 30
0.0
 10
9.588481
 20
-11.485084
 30
0.0
 10
9.588481
 20
-10.644402
 30
0.0
 10
9.889349
 20
-9.915780
 30
0.0
  0
ENDSEC
  0
SECTION
  2
OBJECTS
  0
DICTIONARY
  5
C
330
0
100
AcDbDictionary
  3
ACAD_GROUP
350
D
  3
ACAD_MLINESTYLE
350
17
  0
DICTIONARY
  5
D
330
C
100
AcDbDictionary
  0
DICTIONARY
  5
1A
330
C
100
AcDbDictionary
  0
DICTIONARY
  5
17
330
C
100
AcDbDictionary
  3
STANDARD
350
18
  0
DICTIONARY
  5
19
330
C
100
AcDbDictionary
  0
ENDSEC
  0
EOF
