solid OpenSCAD_Model
  facet normal 1 -0 0
    outer loop
      vertex 0.5 -0.5 1
      vertex 0.5 -0.211325 0
      vertex 0.5 -0.211325 1
    endloop
  endfacet
  facet normal 1 0 0
    outer loop
      vertex 0.5 -0.211325 0
      vertex 0.5 -0.5 1
      vertex 0.5 -0.5 0
    endloop
  endfacet
  facet normal -0 0 1
    outer loop
      vertex -0.5 -0.166667 1
      vertex 0.5 -0.211325 1
      vertex 0.0893164 0.5 1
    endloop
  endfacet
  facet normal 0 0 1
    outer loop
      vertex -0.5 -0.166667 1
      vertex 0.0893164 0.5 1
      vertex -0.1151 0.5 1
    endloop
  endfacet
  facet normal 0 0 1
    outer loop
      vertex -0.5 -0.5 1
      vertex 0.5 -0.211325 1
      vertex -0.5 -0.166667 1
    endloop
  endfacet
  facet normal 0 0 1
    outer loop
      vertex 0.5 -0.211325 1
      vertex -0.5 -0.5 1
      vertex 0.5 -0.5 1
    endloop
  endfacet
  facet normal 0 0 -1
    outer loop
      vertex -0.5 -0.5 0
      vertex 0.5 -0.211325 0
      vertex 0.5 -0.5 0
    endloop
  endfacet
  facet normal 0 0 -1
    outer loop
      vertex 0.5 -0.211325 0
      vertex -0.5 -0.166667 0
      vertex 0.0893164 0.5 0
    endloop
  endfacet
  facet normal -0 0 -1
    outer loop
      vertex 0.5 -0.211325 0
      vertex -0.5 -0.5 0
      vertex -0.5 -0.166667 0
    endloop
  endfacet
  facet normal -0 0 -1
    outer loop
      vertex 0.0893164 0.5 0
      vertex -0.5 -0.166667 0
      vertex -0.1151 0.5 0
    endloop
  endfacet
  facet normal -1 0 0
    outer loop
      vertex -0.5 -0.5 0
      vertex -0.5 -0.166667 1
      vertex -0.5 -0.166667 0
    endloop
  endfacet
  facet normal -1 -0 0
    outer loop
      vertex -0.5 -0.166667 1
      vertex -0.5 -0.5 0
      vertex -0.5 -0.5 1
    endloop
  endfacet
  facet normal 0 1 -0
    outer loop
      vertex 0.0893164 0.5 0
      vertex -0.1151 0.5 1
      vertex 0.0893164 0.5 1
    endloop
  endfacet
  facet normal 0 1 0
    outer loop
      vertex -0.1151 0.5 1
      vertex 0.0893164 0.5 0
      vertex -0.1151 0.5 0
    endloop
  endfacet
  facet normal 0 -1 0
    outer loop
      vertex -0.5 -0.5 0
      vertex 0.5 -0.5 1
      vertex -0.5 -0.5 1
    endloop
  endfacet
  facet normal 0 -1 -0
    outer loop
      vertex 0.5 -0.5 1
      vertex -0.5 -0.5 0
      vertex 0.5 -0.5 0
    endloop
  endfacet
  facet normal -0.866026 0.5 0
    outer loop
      vertex -0.5 -0.166667 0
      vertex -0.1151 0.5 1
      vertex -0.1151 0.5 0
    endloop
  endfacet
  facet normal -0.866026 0.5 0
    outer loop
      vertex -0.1151 0.5 1
      vertex -0.5 -0.166667 0
      vertex -0.5 -0.166667 1
    endloop
  endfacet
  facet normal 0.866025 0.5 0
    outer loop
      vertex 0.5 -0.211325 1
      vertex 0.0893164 0.5 0
      vertex 0.0893164 0.5 1
    endloop
  endfacet
  facet normal 0.866025 0.5 0
    outer loop
      vertex 0.0893164 0.5 0
      vertex 0.5 -0.211325 1
      vertex 0.5 -0.211325 0
    endloop
  endfacet
endsolid OpenSCAD_Model
