solid OpenSCAD_Model
  facet normal 1 0 0
    outer loop
      vertex 0.5 0.125 3
      vertex 0.5 -0.125 3
      vertex 0.5 0.125 1
    endloop
  endfacet
  facet normal 1 -0 0
    outer loop
      vertex 0.5 0.125 1
      vertex 0.5 0.5 0
      vertex 0.5 0.5 1
    endloop
  endfacet
  facet normal 1 0 0
    outer loop
      vertex 0.5 -0.125 1
      vertex 0.5 0.125 1
      vertex 0.5 -0.125 3
    endloop
  endfacet
  facet normal 1 -0 0
    outer loop
      vertex 0.5 -0.125 1
      vertex 0.5 0.5 0
      vertex 0.5 0.125 1
    endloop
  endfacet
  facet normal 1 0 0
    outer loop
      vertex 0.5 -0.5 0
      vertex 0.5 -0.125 1
      vertex 0.5 -0.5 1
    endloop
  endfacet
  facet normal 1 0 0
    outer loop
      vertex 0.5 -0.125 1
      vertex 0.5 -0.5 0
      vertex 0.5 0.5 0
    endloop
  endfacet
  facet normal 0 0 1
    outer loop
      vertex 0.5 0.5 1
      vertex 0.45 0.25 1
      vertex 0.5 0.125 1
    endloop
  endfacet
  facet normal 0 0 1
    outer loop
      vertex 0.5 0.5 1
      vertex 0.4 0.25 1
      vertex 0.45 0.25 1
    endloop
  endfacet
  facet normal 0 0 1
    outer loop
      vertex 0.4 0.25 1
      vertex 0.25 -0.4 1
      vertex 0.4 -0.25 1
    endloop
  endfacet
  facet normal 0 0 1
    outer loop
      vertex 0.4 0.25 1
      vertex -0.25 -0.4 1
      vertex 0.25 -0.4 1
    endloop
  endfacet
  facet normal -0 0 1
    outer loop
      vertex -0.5 0.5 1
      vertex 0.4 0.25 1
      vertex 0.5 0.5 1
    endloop
  endfacet
  facet normal 0 0 1
    outer loop
      vertex -0.5 -0.5 1
      vertex -0.25 -0.4 1
      vertex -0.5 0.5 1
    endloop
  endfacet
  facet normal 0 0 1
    outer loop
      vertex 0.4 0.25 1
      vertex -0.5 0.5 1
      vertex -0.25 -0.4 1
    endloop
  endfacet
  facet normal 0 0 1
    outer loop
      vertex 0.5 0.125 1
      vertex 0.45 0.25 1
      vertex 0.45 0.125 1
    endloop
  endfacet
  facet normal 0 0 1
    outer loop
      vertex 0.45 -0.25 1
      vertex 0.5 -0.125 1
      vertex 0.45 -0.125 1
    endloop
  endfacet
  facet normal 0 0 1
    outer loop
      vertex 0.5 -0.125 1
      vertex 0.45 -0.25 1
      vertex 0.5 -0.5 1
    endloop
  endfacet
  facet normal -0 0 1
    outer loop
      vertex 0.4 -0.25 1
      vertex 0.5 -0.5 1
      vertex 0.45 -0.25 1
    endloop
  endfacet
  facet normal -0 0 1
    outer loop
      vertex 0.25 -0.4 1
      vertex 0.5 -0.5 1
      vertex 0.4 -0.25 1
    endloop
  endfacet
  facet normal -0 0 1
    outer loop
      vertex 0.25 -0.45 1
      vertex 0.5 -0.5 1
      vertex 0.25 -0.4 1
    endloop
  endfacet
  facet normal 0 0 1
    outer loop
      vertex 0.125 -0.5 1
      vertex 0.25 -0.45 1
      vertex 0.125 -0.45 1
    endloop
  endfacet
  facet normal 0 0 1
    outer loop
      vertex 0.25 -0.45 1
      vertex 0.125 -0.5 1
      vertex 0.5 -0.5 1
    endloop
  endfacet
  facet normal -0 0 1
    outer loop
      vertex -0.25 -0.45 1
      vertex -0.125 -0.5 1
      vertex -0.125 -0.45 1
    endloop
  endfacet
  facet normal 0 0 1
    outer loop
      vertex -0.25 -0.45 1
      vertex -0.5 -0.5 1
      vertex -0.125 -0.5 1
    endloop
  endfacet
  facet normal 0 0 1
    outer loop
      vertex -0.25 -0.4 1
      vertex -0.5 -0.5 1
      vertex -0.25 -0.45 1
    endloop
  endfacet
  facet normal 0 0 -1
    outer loop
      vertex -1 -0.125 0
      vertex -0.5 0.125 0
      vertex -0.5 -0.125 0
    endloop
  endfacet
  facet normal -0 0 -1
    outer loop
      vertex -0.5 0.125 0
      vertex -1 -0.125 0
      vertex -1 0.125 0
    endloop
  endfacet
  facet normal 0 0 -1
    outer loop
      vertex 0.5 -0.5 0
      vertex 0.125 0.5 0
      vertex 0.5 0.5 0
    endloop
  endfacet
  facet normal 0 0 -1
    outer loop
      vertex 0.125 0.5 0
      vertex -0.125 0.5 0
      vertex 0.125 1 0
    endloop
  endfacet
  facet normal 0 0 -1
    outer loop
      vertex -0.5 -0.125 0
      vertex 0.125 0.5 0
      vertex 0.5 -0.5 0
    endloop
  endfacet
  facet normal 0 0 -1
    outer loop
      vertex -0.5 -0.125 0
      vertex 0.5 -0.5 0
      vertex -0.5 -0.5 0
    endloop
  endfacet
  facet normal -0 0 -1
    outer loop
      vertex 0.125 0.5 0
      vertex -0.5 -0.125 0
      vertex -0.125 0.5 0
    endloop
  endfacet
  facet normal 0 0 -1
    outer loop
      vertex -0.5 0.125 0
      vertex -0.125 0.5 0
      vertex -0.5 -0.125 0
    endloop
  endfacet
  facet normal -0 0 -1
    outer loop
      vertex -0.125 0.5 0
      vertex -0.5 0.125 0
      vertex -0.5 0.5 0
    endloop
  endfacet
  facet normal -0 0 -1
    outer loop
      vertex 0.125 1 0
      vertex -0.125 0.5 0
      vertex -0.125 1 0
    endloop
  endfacet
  facet normal -1 0 0
    outer loop
      vertex -0.5 -0.125 0
      vertex -0.5 -0.25 0.4
      vertex -0.5 -0.125 0.4
    endloop
  endfacet
  facet normal -1 -0 0
    outer loop
      vertex -0.5 -0.25 0.4
      vertex -0.5 -0.5 0
      vertex -0.5 -0.25 0.6
    endloop
  endfacet
  facet normal -1 0 0
    outer loop
      vertex -0.5 -0.5 0
      vertex -0.5 -0.25 0.4
      vertex -0.5 -0.125 0
    endloop
  endfacet
  facet normal -1 0 0
    outer loop
      vertex -0.5 0.5 0
      vertex -0.5 0.25 0.4
      vertex -0.5 0.5 1
    endloop
  endfacet
  facet normal -1 0 0
    outer loop
      vertex -0.5 0.125 0
      vertex -0.5 0.25 0.4
      vertex -0.5 0.5 0
    endloop
  endfacet
  facet normal -1 -0 0
    outer loop
      vertex -0.5 0.25 0.4
      vertex -0.5 0.125 0
      vertex -0.5 0.125 0.4
    endloop
  endfacet
  facet normal -1 0 0
    outer loop
      vertex -0.5 0.25 0.6
      vertex -0.5 0.5 1
      vertex -0.5 0.25 0.4
    endloop
  endfacet
  facet normal -1 0 0
    outer loop
      vertex -0.5 -0.25 0.6
      vertex -0.5 0.5 1
      vertex -0.5 0.25 0.6
    endloop
  endfacet
  facet normal -1 0 0
    outer loop
      vertex -0.5 -0.25 0.6
      vertex -0.5 -0.5 1
      vertex -0.5 0.5 1
    endloop
  endfacet
  facet normal -1 0 0
    outer loop
      vertex -0.5 -0.5 1
      vertex -0.5 -0.25 0.6
      vertex -0.5 -0.5 0
    endloop
  endfacet
  facet normal 0 1 0
    outer loop
      vertex -0.125 0.5 0.4
      vertex -0.125 0.5 0
      vertex -0.25 0.5 0.4
    endloop
  endfacet
  facet normal 0 1 0
    outer loop
      vertex 0.5 0.5 1
      vertex 0.25 0.5 0.6
      vertex -0.5 0.5 1
    endloop
  endfacet
  facet normal 0 1 0
    outer loop
      vertex 0.5 0.5 1
      vertex 0.25 0.5 0.4
      vertex 0.25 0.5 0.6
    endloop
  endfacet
  facet normal 0 1 -0
    outer loop
      vertex 0.5 0.5 0
      vertex 0.25 0.5 0.4
      vertex 0.5 0.5 1
    endloop
  endfacet
  facet normal 0 1 0
    outer loop
      vertex 0.125 0.5 0
      vertex 0.25 0.5 0.4
      vertex 0.5 0.5 0
    endloop
  endfacet
  facet normal 0 1 0
    outer loop
      vertex 0.25 0.5 0.4
      vertex 0.125 0.5 0
      vertex 0.125 0.5 0.4
    endloop
  endfacet
  facet normal 0 1 -0
    outer loop
      vertex -0.25 0.5 0.6
      vertex -0.5 0.5 1
      vertex 0.25 0.5 0.6
    endloop
  endfacet
  facet normal 0 1 -0
    outer loop
      vertex -0.25 0.5 0.4
      vertex -0.5 0.5 1
      vertex -0.25 0.5 0.6
    endloop
  endfacet
  facet normal 0 1 0
    outer loop
      vertex -0.5 0.5 0
      vertex -0.25 0.5 0.4
      vertex -0.125 0.5 0
    endloop
  endfacet
  facet normal 0 1 0
    outer loop
      vertex -0.25 0.5 0.4
      vertex -0.5 0.5 0
      vertex -0.5 0.5 1
    endloop
  endfacet
  facet normal 0 -1 0
    outer loop
      vertex -0.5 -0.5 0
      vertex -0.125 -0.5 1
      vertex -0.5 -0.5 1
    endloop
  endfacet
  facet normal 0 -1 -0
    outer loop
      vertex -0.125 -0.5 1
      vertex -0.5 -0.5 0
      vertex 0.125 -0.5 1
    endloop
  endfacet
  facet normal 0 -1 0
    outer loop
      vertex 0.5 -0.5 0
      vertex 0.125 -0.5 1
      vertex -0.5 -0.5 0
    endloop
  endfacet
  facet normal 0 -1 0
    outer loop
      vertex 0.125 -0.5 1
      vertex 0.5 -0.5 0
      vertex 0.5 -0.5 1
    endloop
  endfacet
  facet normal 0 -1 0
    outer loop
      vertex -0.125 -0.5 1
      vertex 0.125 -0.5 3.2
      vertex -0.125 -0.5 3.2
    endloop
  endfacet
  facet normal 0 -1 -0
    outer loop
      vertex 0.125 -0.5 3.2
      vertex -0.125 -0.5 1
      vertex 0.125 -0.5 1
    endloop
  endfacet
  facet normal 1 -0 0
    outer loop
      vertex 0.25 0.5 0.6
      vertex 0.25 1 0.4
      vertex 0.25 1 0.6
    endloop
  endfacet
  facet normal 1 0 0
    outer loop
      vertex 0.25 1 0.4
      vertex 0.25 0.5 0.6
      vertex 0.25 0.5 0.4
    endloop
  endfacet
  facet normal -0 0 1
    outer loop
      vertex -0.25 1 0.6
      vertex 0.25 0.5 0.6
      vertex 0.25 1 0.6
    endloop
  endfacet
  facet normal 0 0 1
    outer loop
      vertex 0.25 0.5 0.6
      vertex -0.25 1 0.6
      vertex -0.25 0.5 0.6
    endloop
  endfacet
  facet normal 0 0 -1
    outer loop
      vertex -1 -0.25 0.4
      vertex -0.5 -0.125 0.4
      vertex -0.5 -0.25 0.4
    endloop
  endfacet
  facet normal -0 0 -1
    outer loop
      vertex -0.5 -0.125 0.4
      vertex -1 -0.25 0.4
      vertex -1 -0.125 0.4
    endloop
  endfacet
  facet normal 0 0 -1
    outer loop
      vertex -1 0.125 0.4
      vertex -0.5 0.25 0.4
      vertex -0.5 0.125 0.4
    endloop
  endfacet
  facet normal -0 0 -1
    outer loop
      vertex -0.5 0.25 0.4
      vertex -1 0.125 0.4
      vertex -1 0.25 0.4
    endloop
  endfacet
  facet normal 0 0 -1
    outer loop
      vertex -0.25 0.5 0.4
      vertex -0.125 1 0.4
      vertex -0.125 0.5 0.4
    endloop
  endfacet
  facet normal -0 0 -1
    outer loop
      vertex -0.125 1 0.4
      vertex -0.25 0.5 0.4
      vertex -0.25 1 0.4
    endloop
  endfacet
  facet normal 0 0 -1
    outer loop
      vertex 0.125 0.5 0.4
      vertex 0.25 1 0.4
      vertex 0.25 0.5 0.4
    endloop
  endfacet
  facet normal -0 0 -1
    outer loop
      vertex 0.25 1 0.4
      vertex 0.125 0.5 0.4
      vertex 0.125 1 0.4
    endloop
  endfacet
  facet normal -1 0 0
    outer loop
      vertex -0.25 0.5 0.4
      vertex -0.25 1 0.6
      vertex -0.25 1 0.4
    endloop
  endfacet
  facet normal -1 -0 0
    outer loop
      vertex -0.25 1 0.6
      vertex -0.25 0.5 0.4
      vertex -0.25 0.5 0.6
    endloop
  endfacet
  facet normal 0 1 -0
    outer loop
      vertex 0.125 1 0
      vertex -0.125 1 0.4
      vertex 0.125 1 0.4
    endloop
  endfacet
  facet normal 0 1 0
    outer loop
      vertex -0.125 1 0.4
      vertex 0.125 1 0
      vertex -0.125 1 0
    endloop
  endfacet
  facet normal 0 1 0
    outer loop
      vertex 0.125 1 0.4
      vertex 0.25 1 0.6
      vertex 0.25 1 0.4
    endloop
  endfacet
  facet normal 0 1 0
    outer loop
      vertex 0.25 1 0.6
      vertex 0.125 1 0.4
      vertex -0.25 1 0.6
    endloop
  endfacet
  facet normal 0 1 -0
    outer loop
      vertex -0.125 1 0.4
      vertex -0.25 1 0.6
      vertex 0.125 1 0.4
    endloop
  endfacet
  facet normal 0 1 0
    outer loop
      vertex -0.25 1 0.6
      vertex -0.125 1 0.4
      vertex -0.25 1 0.4
    endloop
  endfacet
  facet normal 1 -0 0
    outer loop
      vertex 0.125 0.5 0.4
      vertex 0.125 1 0
      vertex 0.125 1 0.4
    endloop
  endfacet
  facet normal 1 0 0
    outer loop
      vertex 0.125 1 0
      vertex 0.125 0.5 0.4
      vertex 0.125 0.5 0
    endloop
  endfacet
  facet normal -1 0 0
    outer loop
      vertex -0.125 0.5 0
      vertex -0.125 1 0.4
      vertex -0.125 1 0
    endloop
  endfacet
  facet normal -1 -0 0
    outer loop
      vertex -0.125 1 0.4
      vertex -0.125 0.5 0
      vertex -0.125 0.5 0.4
    endloop
  endfacet
  facet normal 0 -1 0
    outer loop
      vertex -1 -0.25 0.4
      vertex -0.5 -0.25 0.6
      vertex -1 -0.25 0.6
    endloop
  endfacet
  facet normal 0 -1 -0
    outer loop
      vertex -0.5 -0.25 0.6
      vertex -1 -0.25 0.4
      vertex -0.5 -0.25 0.4
    endloop
  endfacet
  facet normal -0 0 1
    outer loop
      vertex -1 0.25 0.6
      vertex -0.5 -0.25 0.6
      vertex -0.5 0.25 0.6
    endloop
  endfacet
  facet normal 0 0 1
    outer loop
      vertex -0.5 -0.25 0.6
      vertex -1 0.25 0.6
      vertex -1 -0.25 0.6
    endloop
  endfacet
  facet normal 0 1 -0
    outer loop
      vertex -0.5 0.25 0.4
      vertex -1 0.25 0.6
      vertex -0.5 0.25 0.6
    endloop
  endfacet
  facet normal 0 1 0
    outer loop
      vertex -1 0.25 0.6
      vertex -0.5 0.25 0.4
      vertex -1 0.25 0.4
    endloop
  endfacet
  facet normal -1 0 0
    outer loop
      vertex -1 0.125 0
      vertex -1 -0.125 0
      vertex -1 0.125 0.4
    endloop
  endfacet
  facet normal -1 0 0
    outer loop
      vertex -1 0.125 0.4
      vertex -1 0.25 0.6
      vertex -1 0.25 0.4
    endloop
  endfacet
  facet normal -1 0 0
    outer loop
      vertex -1 -0.125 0.4
      vertex -1 0.125 0.4
      vertex -1 -0.125 0
    endloop
  endfacet
  facet normal -1 0 0
    outer loop
      vertex -1 0.125 0.4
      vertex -1 -0.125 0.4
      vertex -1 0.25 0.6
    endloop
  endfacet
  facet normal -1 0 0
    outer loop
      vertex -1 -0.25 0.6
      vertex -1 -0.125 0.4
      vertex -1 -0.25 0.4
    endloop
  endfacet
  facet normal -1 0 0
    outer loop
      vertex -1 -0.125 0.4
      vertex -1 -0.25 0.6
      vertex -1 0.25 0.6
    endloop
  endfacet
  facet normal 0 1 -0
    outer loop
      vertex -0.5 0.125 0
      vertex -1 0.125 0.4
      vertex -0.5 0.125 0.4
    endloop
  endfacet
  facet normal 0 1 0
    outer loop
      vertex -1 0.125 0.4
      vertex -0.5 0.125 0
      vertex -1 0.125 0
    endloop
  endfacet
  facet normal 0 -1 0
    outer loop
      vertex -1 -0.125 0
      vertex -0.5 -0.125 0.4
      vertex -1 -0.125 0.4
    endloop
  endfacet
  facet normal 0 -1 -0
    outer loop
      vertex -0.5 -0.125 0.4
      vertex -1 -0.125 0
      vertex -0.5 -0.125 0
    endloop
  endfacet
  facet normal 1 -0 0
    outer loop
      vertex 0.45 0.125 3
      vertex 0.45 0.25 1
      vertex 0.45 0.25 3
    endloop
  endfacet
  facet normal 1 0 0
    outer loop
      vertex 0.45 0.25 1
      vertex 0.45 0.125 3
      vertex 0.45 0.125 1
    endloop
  endfacet
  facet normal 1 -0 0
    outer loop
      vertex 0.45 -0.25 3
      vertex 0.45 -0.125 1
      vertex 0.45 -0.125 3
    endloop
  endfacet
  facet normal 1 0 0
    outer loop
      vertex 0.45 -0.125 1
      vertex 0.45 -0.25 3
      vertex 0.45 -0.25 1
    endloop
  endfacet
  facet normal -0 0 1
    outer loop
      vertex 0.4 0.25 3
      vertex 0.45 0.125 3
      vertex 0.45 0.25 3
    endloop
  endfacet
  facet normal 0 0 1
    outer loop
      vertex 0.45 0.125 3
      vertex 0.4 0.25 3
      vertex 0.45 -0.125 3
    endloop
  endfacet
  facet normal 0 0 1
    outer loop
      vertex 0.4 -0.25 3
      vertex 0.45 -0.125 3
      vertex 0.4 0.25 3
    endloop
  endfacet
  facet normal 0 0 1
    outer loop
      vertex 0.45 -0.125 3
      vertex 0.4 -0.25 3
      vertex 0.45 -0.25 3
    endloop
  endfacet
  facet normal -0 0 1
    outer loop
      vertex 0.45 0.125 3
      vertex 0.5 -0.125 3
      vertex 0.5 0.125 3
    endloop
  endfacet
  facet normal 0 0 1
    outer loop
      vertex 0.5 -0.125 3
      vertex 0.45 0.125 3
      vertex 0.45 -0.125 3
    endloop
  endfacet
  facet normal -1 0 0
    outer loop
      vertex 0.4 -0.25 1
      vertex 0.4 0.25 3
      vertex 0.4 0.25 1
    endloop
  endfacet
  facet normal -1 -0 0
    outer loop
      vertex 0.4 0.25 3
      vertex 0.4 -0.25 1
      vertex 0.4 -0.25 3
    endloop
  endfacet
  facet normal 0 1 -0
    outer loop
      vertex 0.45 0.25 1
      vertex 0.4 0.25 3
      vertex 0.45 0.25 3
    endloop
  endfacet
  facet normal 0 1 0
    outer loop
      vertex 0.4 0.25 3
      vertex 0.45 0.25 1
      vertex 0.4 0.25 1
    endloop
  endfacet
  facet normal 0 -1 0
    outer loop
      vertex 0.4 -0.25 1
      vertex 0.45 -0.25 3
      vertex 0.4 -0.25 3
    endloop
  endfacet
  facet normal 0 -1 -0
    outer loop
      vertex 0.45 -0.25 3
      vertex 0.4 -0.25 1
      vertex 0.45 -0.25 1
    endloop
  endfacet
  facet normal 0 1 -0
    outer loop
      vertex 0.5 0.125 1
      vertex 0.45 0.125 3
      vertex 0.5 0.125 3
    endloop
  endfacet
  facet normal 0 1 0
    outer loop
      vertex 0.45 0.125 3
      vertex 0.5 0.125 1
      vertex 0.45 0.125 1
    endloop
  endfacet
  facet normal 0 -1 0
    outer loop
      vertex 0.45 -0.125 1
      vertex 0.5 -0.125 3
      vertex 0.45 -0.125 3
    endloop
  endfacet
  facet normal 0 -1 -0
    outer loop
      vertex 0.5 -0.125 3
      vertex 0.45 -0.125 1
      vertex 0.5 -0.125 1
    endloop
  endfacet
  facet normal 0 -1 0
    outer loop
      vertex 0.125 -0.45 1
      vertex 0.25 -0.45 3.2
      vertex 0.125 -0.45 3.2
    endloop
  endfacet
  facet normal 0 -1 -0
    outer loop
      vertex 0.25 -0.45 3.2
      vertex 0.125 -0.45 1
      vertex 0.25 -0.45 1
    endloop
  endfacet
  facet normal 0 -1 0
    outer loop
      vertex -0.25 -0.45 1
      vertex -0.125 -0.45 3.2
      vertex -0.25 -0.45 3.2
    endloop
  endfacet
  facet normal 0 -1 -0
    outer loop
      vertex -0.125 -0.45 3.2
      vertex -0.25 -0.45 1
      vertex -0.125 -0.45 1
    endloop
  endfacet
  facet normal 0 0 1
    outer loop
      vertex 0.25 -0.4 3.2
      vertex 0.125 -0.45 3.2
      vertex 0.25 -0.45 3.2
    endloop
  endfacet
  facet normal 0 0 1
    outer loop
      vertex 0.125 -0.45 3.2
      vertex -0.125 -0.45 3.2
      vertex 0.125 -0.5 3.2
    endloop
  endfacet
  facet normal 0 0 1
    outer loop
      vertex 0.25 -0.4 3.2
      vertex -0.125 -0.45 3.2
      vertex 0.125 -0.45 3.2
    endloop
  endfacet
  facet normal -0 0 1
    outer loop
      vertex -0.25 -0.4 3.2
      vertex -0.125 -0.45 3.2
      vertex 0.25 -0.4 3.2
    endloop
  endfacet
  facet normal 0 0 1
    outer loop
      vertex -0.125 -0.45 3.2
      vertex -0.25 -0.4 3.2
      vertex -0.25 -0.45 3.2
    endloop
  endfacet
  facet normal 0 0 1
    outer loop
      vertex 0.125 -0.5 3.2
      vertex -0.125 -0.45 3.2
      vertex -0.125 -0.5 3.2
    endloop
  endfacet
  facet normal 0 1 -0
    outer loop
      vertex 0.25 -0.4 1
      vertex -0.25 -0.4 3.2
      vertex 0.25 -0.4 3.2
    endloop
  endfacet
  facet normal 0 1 0
    outer loop
      vertex -0.25 -0.4 3.2
      vertex 0.25 -0.4 1
      vertex -0.25 -0.4 1
    endloop
  endfacet
  facet normal -1 0 0
    outer loop
      vertex -0.25 -0.45 1
      vertex -0.25 -0.4 3.2
      vertex -0.25 -0.4 1
    endloop
  endfacet
  facet normal -1 -0 0
    outer loop
      vertex -0.25 -0.4 3.2
      vertex -0.25 -0.45 1
      vertex -0.25 -0.45 3.2
    endloop
  endfacet
  facet normal 1 -0 0
    outer loop
      vertex 0.25 -0.45 3.2
      vertex 0.25 -0.4 1
      vertex 0.25 -0.4 3.2
    endloop
  endfacet
  facet normal 1 0 0
    outer loop
      vertex 0.25 -0.4 1
      vertex 0.25 -0.45 3.2
      vertex 0.25 -0.45 1
    endloop
  endfacet
  facet normal 1 -0 0
    outer loop
      vertex 0.125 -0.5 3.2
      vertex 0.125 -0.45 1
      vertex 0.125 -0.45 3.2
    endloop
  endfacet
  facet normal 1 0 0
    outer loop
      vertex 0.125 -0.45 1
      vertex 0.125 -0.5 3.2
      vertex 0.125 -0.5 1
    endloop
  endfacet
  facet normal -1 0 0
    outer loop
      vertex -0.125 -0.5 1
      vertex -0.125 -0.45 3.2
      vertex -0.125 -0.45 1
    endloop
  endfacet
  facet normal -1 -0 0
    outer loop
      vertex -0.125 -0.45 3.2
      vertex -0.125 -0.5 1
      vertex -0.125 -0.5 3.2
    endloop
  endfacet
endsolid OpenSCAD_Model
