solid OpenSCAD_Model
  facet normal 1 -0 0
    outer loop
      vertex 60 0 4
      vertex 60 60 0
      vertex 60 60 4
    endloop
  endfacet
  facet normal 1 0 0
    outer loop
      vertex 60 60 0
      vertex 60 0 4
      vertex 60 0 0
    endloop
  endfacet
  facet normal -0 0 1
    outer loop
      vertex 40 60 4
      vertex 60 0 4
      vertex 60 60 4
    endloop
  endfacet
  facet normal -0 0 1
    outer loop
      vertex 0 20 4
      vertex 60 0 4
      vertex 40 60 4
    endloop
  endfacet
  facet normal 0 0 1
    outer loop
      vertex 60 0 4
      vertex 0 20 4
      vertex 0 0 4
    endloop
  endfacet
  facet normal 0 0 -1
    outer loop
      vertex 60 0 0
      vertex 40 60 0
      vertex 60 60 0
    endloop
  endfacet
  facet normal 0 0 -1
    outer loop
      vertex 0 20 0
      vertex 60 0 0
      vertex 0 0 0
    endloop
  endfacet
  facet normal 0 0 -1
    outer loop
      vertex 60 0 0
      vertex 0 20 0
      vertex 40 60 0
    endloop
  endfacet
  facet normal -1 0 0
    outer loop
      vertex 0 0 0
      vertex 0 20 4
      vertex 0 20 0
    endloop
  endfacet
  facet normal -1 -0 0
    outer loop
      vertex 0 20 4
      vertex 0 0 0
      vertex 0 0 4
    endloop
  endfacet
  facet normal 0 1 -0
    outer loop
      vertex 60 60 0
      vertex 40 60 4
      vertex 60 60 4
    endloop
  endfacet
  facet normal 0 1 0
    outer loop
      vertex 40 60 4
      vertex 60 60 0
      vertex 40 60 0
    endloop
  endfacet
  facet normal 0 -1 0
    outer loop
      vertex 0 0 0
      vertex 60 0 4
      vertex 0 0 4
    endloop
  endfacet
  facet normal 0 -1 -0
    outer loop
      vertex 60 0 4
      vertex 0 0 0
      vertex 60 0 0
    endloop
  endfacet
  facet normal -0.707107 0.707107 0
    outer loop
      vertex 0 20 0
      vertex 40 60 4
      vertex 40 60 0
    endloop
  endfacet
  facet normal -0.707107 0.707107 0
    outer loop
      vertex 40 60 4
      vertex 0 20 0
      vertex 0 20 4
    endloop
  endfacet
endsolid OpenSCAD_Model
